<svg width="300mm" height="300mm" version="1.1" viewBox="0 0 300 300" xmlns="http://www.w3.org/2000/svg">
 <g fill="#fff" stroke-width=".26458">
  <path d="m150 30-51.962 30 12.99 7.5 38.971-22.5 38.971 22.5 12.99-7.5z"/>
  <path d="m270 150.05-30-51.962-7.5 12.99 22.5 38.971-22.5 38.971 7.5 12.99z"/>
  <path d="m30 150 30 51.962 7.5-12.99-22.5-38.971 22.5-38.971-7.5-12.99z"/>
  <path d="m150 270 51.962-30-12.99-7.5-38.971 22.5-38.971-22.5-12.99 7.5z"/>
 </g>
 <g fill="#fff" stroke-width=".26458">
  <path d="m140 120c3.3333-6.6667 6.6667-13.333 10-13.333 3.3334 7e-5 6.6666 6.6666 10 13.333"/>
  <path d="m180 190-30-10-30 10h-10v-10l30-60 10-10 10 10 30 60v10z"/>
  <path d="m110 180c-3.3333 6.6667-6.6667 13.333 1.7e-4 13.333 6.6668-7e-5 23.333-6.6666 40-13.333"/>
  <path d="m190 180c3.3333 6.6667 6.6667 13.333-1.7e-4 13.333-6.6668-7e-5 -23.333-6.6666-40-13.333"/>
 </g>
</svg>
