<svg width="300mm" height="300mm" version="1.1" viewBox="0 0 300 300" xml:space="preserve" xmlns="http://www.w3.org/2000/svg"><g fill="#fff" stroke-width=".26458"><g transform="matrix(.33333 0 0 .33333 100 8.3333)"><path d="m141.34 125 51.962 30"/><path d="m1.1444e-6 200h10l140-140 140 140h10l-150-150z"/><path d="m30 200 120-120 120 120h-10l-110-110-110 110z"/><path d="m290 195h-35l5 5h40l-5-5z"/><path d="m40 200h-40l5-5h40z"/></g><g transform="matrix(.33333 0 0 -.33333 100 291.67)"><path d="m141.34 125 51.962 30"/><path d="m1.1444e-6 200h10l140-140 140 140h10l-150-150z"/><path d="m30 200 120-120 120 120h-10l-110-110-110 110z"/><path d="m290 195h-35l5 5h40l-5-5z"/><path d="m40 200h-40l5-5h40z"/></g><g transform="matrix(0 .33333 -.33333 0 291.67 100)"><path d="m141.34 125 51.962 30"/><path d="m1.1444e-6 200h10l140-140 140 140h10l-150-150z"/><path d="m30 200 120-120 120 120h-10l-110-110-110 110z"/><path d="m290 195h-35l5 5h40l-5-5z"/><path d="m40 200h-40l5-5h40z"/></g><g transform="matrix(0 .33333 .33333 0 8.3333 100)"><path d="m141.34 125 51.962 30"/><path d="m1.1444e-6 200h10l140-140 140 140h10l-150-150z"/><path d="m30 200 120-120 120 120h-10l-110-110-110 110z"/><path d="m290 195h-35l5 5h40l-5-5z"/><path d="m40 200h-40l5-5h40z"/></g></g></svg>
